<?xml version="1.0" encoding="UTF-8" standalone="no"?>
<!-- Generator: Adobe Illustrator 19.0.0, SVG Export Plug-In . SVG Version: 6.00 Build 0)  -->

<svg
   xmlns:dc="http://purl.org/dc/elements/1.1/"
   xmlns:cc="http://creativecommons.org/ns#"
   xmlns:rdf="http://www.w3.org/1999/02/22-rdf-syntax-ns#"
   xmlns:svg="http://www.w3.org/2000/svg"
   xmlns="http://www.w3.org/2000/svg"
   xmlns:sodipodi="http://sodipodi.sourceforge.net/DTD/sodipodi-0.dtd"
   xmlns:inkscape="http://www.inkscape.org/namespaces/inkscape"
   version="1.1"
   id="Capa_1"
   x="0px"
   y="0px"
   viewBox="0 0 33 33"
   style="enable-background:new 0 0 33 33;"
   xml:space="preserve"
   sodipodi:docname="monitor.svg"
   inkscape:version="0.92.4 5da689c313, 2019-01-14"><metadata
   id="metadata45"><rdf:RDF><cc:Work
       rdf:about=""><dc:format>image/svg+xml</dc:format><dc:type
         rdf:resource="http://purl.org/dc/dcmitype/StillImage" /><dc:title></dc:title></cc:Work></rdf:RDF></metadata><defs
   id="defs43" /><sodipodi:namedview
   pagecolor="#ffffff"
   bordercolor="#666666"
   borderopacity="1"
   objecttolerance="10"
   gridtolerance="10"
   guidetolerance="10"
   inkscape:pageopacity="0"
   inkscape:pageshadow="2"
   inkscape:window-width="1865"
   inkscape:window-height="1011"
   id="namedview41"
   showgrid="false"
   inkscape:zoom="20.227539"
   inkscape:cx="11.243802"
   inkscape:cy="13.266466"
   inkscape:window-x="55"
   inkscape:window-y="35"
   inkscape:window-maximized="1"
   inkscape:current-layer="Capa_1" />
<g
   id="g8">
	<path
   d="M30.5,26.109h-28c-1.378,0-2.5-1.121-2.5-2.5V4.61c0-1.379,1.122-2.5,2.5-2.5h28c1.378,0,2.5,1.121,2.5,2.5v18.999   C33,24.988,31.878,26.109,30.5,26.109z M2.5,3.11C1.673,3.11,1,3.783,1,4.61v18.999c0,0.827,0.673,1.5,1.5,1.5h28   c0.827,0,1.5-0.673,1.5-1.5V4.61c0-0.827-0.673-1.5-1.5-1.5H2.5z"
   id="path2" />
	<path
   d="M22.875,30.89h-12.75c-0.276,0-0.5-0.224-0.5-0.5s0.224-0.5,0.5-0.5h12.75c0.276,0,0.5,0.224,0.5,0.5   S23.151,30.89,22.875,30.89z"
   id="path4" />
	<path
   d="M16.5,30.89c-0.276,0-0.5-0.224-0.5-0.5v-4.781c0-0.276,0.224-0.5,0.5-0.5s0.5,0.224,0.5,0.5v4.781   C17,30.667,16.776,30.89,16.5,30.89z"
   id="path6" />
</g>
<g
   id="g10">
</g>
<g
   id="g12">
</g>
<g
   id="g14">
</g>
<g
   id="g16">
</g>
<g
   id="g18">
</g>
<g
   id="g20">
</g>
<g
   id="g22">
</g>
<g
   id="g24">
</g>
<g
   id="g26">
</g>
<g
   id="g28">
</g>
<g
   id="g30">
</g>
<g
   id="g32">
</g>
<g
   id="g34">
</g>
<g
   id="g36">
</g>
<g
   id="g38">
</g>
<text
   xml:space="preserve"
   style="font-style:normal;font-variant:normal;font-weight:normal;font-stretch:normal;font-size:4.45066977px;line-height:1.25;font-family:'Bitstream Vera Sans Mono';-inkscape-font-specification:'Bitstream Vera Sans Mono, Normal';font-variant-ligatures:normal;font-variant-caps:normal;font-variant-numeric:normal;font-feature-settings:normal;text-align:start;letter-spacing:0px;word-spacing:0px;writing-mode:lr-tb;text-anchor:start;fill:#000000;fill-opacity:1;stroke:none;stroke-width:0.11126673"
   x="4.0762043"
   y="21.048824"
   id="text3758"
   transform="scale(1.0329817,0.96807137)"><tspan
     sodipodi:role="line"
     id="tspan3818"
     x="4.0762043"
     y="21.048824"
     style="stroke-width:0.11126673">⎮ꭤ❭</tspan></text>
<g
   inkscape:groupmode="layer"
   id="layer1"
   inkscape:label="Layer 1" /></svg>